<svg width="150" height="25" viewBox="0 0 150 25" fill="none" xmlns="http://www.w3.org/2000/svg">
<g clip-path="url(#clip0_48_2804)">
<path d="M51.4542 16.4563C51.5217 16.0857 51.5609 15.7063 51.5609 15.3204C51.5609 14.1724 51.2428 13.1012 50.7003 12.1791C49.0805 11.9313 47.1305 11.7844 45.0228 11.7844C43.2722 11.7844 41.6317 11.8864 40.1958 12.0618C39.6097 13.0092 39.2644 14.1243 39.2644 15.3204C39.2644 15.7086 39.3047 16.0879 39.3733 16.4564C40.528 16.4257 41.6915 16.8511 42.5717 17.737C43.5369 18.7085 43.9487 20.022 43.8201 21.2906C44.3288 21.4288 44.8615 21.5088 45.4127 21.5088C45.9585 21.5088 46.4923 21.431 47.0064 21.2928C46.8757 20.0231 47.2875 18.7096 48.2537 17.7359C49.135 16.8488 50.2995 16.4245 51.4544 16.4552L51.4542 16.4563ZM45.4127 16.8489C44.4998 16.8489 43.759 16.1033 43.759 15.1844C43.759 14.2656 44.4998 13.52 45.4127 13.52C46.3256 13.52 47.0663 14.2656 47.0663 15.1844C47.0663 16.1033 46.3256 16.8489 45.4127 16.8489Z" fill="#F7BB0D"/>
<path d="M37.9311 9.21662H39.5248C39.6119 9.21662 39.6947 9.18263 39.7557 9.12013C39.8167 9.05873 39.8516 8.9754 39.8516 8.88768V7.49078C39.8516 7.01054 39.5684 6.58618 39.1631 6.40856V3.37902L45.2698 5.50178C45.3156 5.51713 45.3635 5.5259 45.4126 5.5259C45.4605 5.5259 45.5084 5.51713 45.5553 5.50178L52.2395 3.17729C52.4149 3.11588 52.5326 2.94922 52.5326 2.76281C52.5326 2.57641 52.4149 2.40975 52.2395 2.34834L45.5553 0.0238478C45.4627 -0.00794928 45.3635 -0.00794928 45.2709 0.0238478L38.5867 2.34834C38.5812 2.35053 38.5769 2.35382 38.5714 2.35601C38.5562 2.36259 38.5431 2.37136 38.53 2.37794C38.4973 2.39549 38.4679 2.41413 38.4418 2.43825C38.4287 2.45031 38.4167 2.46237 38.4047 2.47553C38.3808 2.50184 38.3623 2.53145 38.3459 2.56324C38.3383 2.57859 38.3296 2.59175 38.3241 2.6071C38.3056 2.65644 38.2936 2.70798 38.2936 2.7617V6.40849C38.189 6.45345 38.0888 6.50717 38.0006 6.58392C37.75 6.79883 37.6062 7.11351 37.6062 7.44465V8.8854C37.6062 9.06741 37.7522 9.21434 37.933 9.21434L37.9311 9.21662Z" fill="#F7BB0D"/>
<path d="M50.902 7.37436C50.7821 8.26798 49.7549 8.7581 48.5839 9.02345C50.866 10.1901 52.4326 12.5695 52.4326 15.3217C52.4326 19.2239 49.2888 22.3873 45.4128 22.3873C41.5368 22.3873 38.393 19.2239 38.393 15.3217C38.393 12.5695 39.9606 10.1903 42.2417 9.02345C41.672 8.89516 41.1393 8.71095 40.7232 8.45549V8.8875C40.7232 9.20985 40.599 9.5125 40.3724 9.74056C40.1459 9.96863 39.8452 10.0936 39.5249 10.0936H37.9312C37.7406 10.0936 37.563 10.0443 37.4029 9.96424C36.3876 11.4982 35.795 13.339 35.795 15.3205C35.795 20.6669 40.1011 24.9999 45.4117 24.9999C50.7222 24.9999 55.0283 20.6666 55.0283 15.3205C55.0283 12.0299 53.3943 9.12328 50.8996 7.37427L50.902 7.37436Z" fill="#F7BB0D"/>
<path d="M50.0534 7.2035V4.86694L45.8399 6.33183C45.6994 6.38008 45.5567 6.4042 45.4129 6.4042C45.2691 6.4042 45.1264 6.38008 44.9891 6.33293L40.7723 4.86694V7.2035C40.7723 7.89426 42.8497 8.45456 45.413 8.45456C47.9764 8.45456 50.0537 7.89426 50.0537 7.2035H50.0534Z" fill="#F7BB0D"/>
<path d="M0 12.9696V8.33337H15.0586V12.9696H11.3579V11.4242H13.5232V9.87879H1.53538V11.4242H6.77143L6.75175 20.6769H8.28713V11.4242H9.82251V22.2223H5.21637V12.9696H0ZM32.8729 8.33337V12.9696H22.4205V14.515H30.1762V16.0605H20.8851V11.4242H31.3376V9.87879H19.3498V20.6769H31.3376V19.1315H20.8851V17.5861H32.8729V22.2223H17.8144V8.33337H32.8729Z" fill="#F7BB0D"/>
<path d="M73.0876 22.2223H67.7729L65.9816 19.1117H62.5368V22.2223H57.9503V14.4952L69.2098 14.515C70.4893 14.515 71.5129 13.465 71.5129 12.1969C71.5129 10.9091 70.4893 9.87879 69.2098 9.87879H59.4857V11.4242H69.2098C69.6232 11.444 69.9381 11.7808 69.9381 12.1969C69.9381 12.613 69.6232 12.9498 69.2098 12.9696H69.1901H69.1705H57.9503V8.33337H69.2098C71.3357 8.33337 73.0483 10.0571 73.0483 12.1969C73.0483 14.3169 71.3357 16.0605 69.2098 16.0605L59.4857 16.0407V20.6769H61.0211V17.5663H66.8674C67.4973 18.7154 68.5602 20.4788 68.6587 20.6769H70.4303C70.2728 20.459 69.3673 18.8343 68.639 17.5663H70.4106C71.0602 18.6956 71.7097 19.8646 72.2412 20.7363L73.0876 22.2223ZM80.4496 22.2223H75.8435V8.33337H80.4496V19.1315H78.9142V9.87879H77.3788V20.6769H80.4496V22.2223Z" fill="#F7BB0D"/>
<path d="M95.4545 19.1384V22.8693C93.9622 23.2811 92.4699 23.4507 90.9294 23.4507C86.4044 23.4507 83.3717 20.3255 83.3717 15.8921C83.3717 11.3375 86.5248 8.33337 90.9054 8.33337C92.4217 8.33337 94.0103 8.45451 95.4545 8.91481V12.6457C94.2751 12.0643 92.4217 11.8462 91.122 11.8462C88.1855 11.8462 86.9821 13.0575 86.9821 15.8678C86.9821 18.8477 88.4022 19.9379 91.1461 19.9379C92.3736 19.9379 94.3713 19.7441 95.4545 19.1384ZM108.5 19.9137V23.2811H97.5485V8.45451H101.159V19.9137H108.5ZM119.451 20.2771H114.036L112.977 23.2811H109.054L114.951 8.45451H118.561L124.458 23.2811H120.511L119.451 20.2771ZM115.215 16.9096H118.272L116.756 12.5972L115.215 16.9096ZM125.204 22.9178V19.5018C125.493 19.5745 125.854 19.6472 126.263 19.6956C126.672 19.7683 127.105 19.8168 127.563 19.841C128.02 19.8652 128.477 19.8894 128.959 19.9137C129.44 19.9379 129.898 19.9621 130.307 19.9621C131.438 19.9621 132.232 19.8894 132.714 19.7683C133.171 19.6472 133.412 19.4291 133.412 19.09C133.412 18.7992 133.195 18.5812 132.978 18.4116C132.184 17.8786 131.245 17.6606 130.307 17.4426C127.659 16.9096 125.228 15.8436 125.228 12.7911C125.228 9.1813 128.622 8.33337 131.534 8.33337C133.147 8.33337 134.784 8.50296 136.348 8.89058V12.3065C136.107 12.2338 135.794 12.1854 135.409 12.1127C135 12.0643 134.591 12.0158 134.134 11.9674C133.195 11.8704 132.304 11.822 131.366 11.822C130.836 11.822 129.729 11.822 129.224 12.0158C128.887 12.1369 128.67 12.2823 128.67 12.6699C128.67 12.8637 128.718 13.0333 128.814 13.1787C128.911 13.3483 129.079 13.4694 129.296 13.5905C129.946 13.9539 130.788 14.172 131.51 14.3416C132.112 14.4869 132.714 14.6565 133.339 14.8261C135.458 15.4075 136.854 16.5946 136.854 18.8719C136.854 22.627 133.147 23.4265 130.162 23.4265C128.526 23.4265 126.817 23.3054 125.204 22.9178ZM138.129 22.9178V19.5018C138.418 19.5745 138.779 19.6472 139.188 19.6956C139.597 19.7683 140.031 19.8168 140.488 19.841C140.945 19.8652 141.403 19.8894 141.884 19.9137C142.365 19.9379 142.823 19.9621 143.232 19.9621C144.363 19.9621 145.157 19.8894 145.639 19.7683C146.096 19.6472 146.337 19.4291 146.337 19.09C146.337 18.7992 146.12 18.5812 145.904 18.4116C145.109 17.8786 144.171 17.6606 143.232 17.4426C140.584 16.9096 138.153 15.8436 138.153 12.7911C138.153 9.1813 141.547 8.33337 144.459 8.33337C146.072 8.33337 147.709 8.50296 149.273 8.89058V12.3065C149.033 12.2338 148.72 12.1854 148.335 12.1127C147.925 12.0643 147.516 12.0158 147.059 11.9674C146.12 11.8704 145.23 11.822 144.291 11.822C143.761 11.822 142.654 11.822 142.149 12.0158C141.812 12.1369 141.595 12.2823 141.595 12.6699C141.595 12.8637 141.643 13.0333 141.74 13.1787C141.836 13.3483 142.004 13.4694 142.221 13.5905C142.871 13.9539 143.713 14.172 144.435 14.3416C145.037 14.4869 145.639 14.6565 146.265 14.8261C148.383 15.4075 149.779 16.5946 149.779 18.8719C149.779 22.627 146.072 23.4265 143.087 23.4265C141.451 23.4265 139.742 23.3054 138.129 22.9178Z" fill="#F7BB0D"/>
</g>
<defs>
<clipPath id="clip0_48_2804">
<rect width="150" height="25" fill="white"/>
</clipPath>
</defs>
</svg>
